<?xml version="1.0" encoding="utf-8"?>
<svg xmlns="http://www.w3.org/2000/svg" viewBox="0 0 500 500" width="48px" height="48px"><defs><linearGradient id="gradient-1"><stop offset="0" style="stop-color: rgb(43, 127, 255);"/><stop offset="1" style="stop-color: rgb(0, 184, 219);"/></linearGradient><linearGradient id="gradient-1-0" href="#gradient-1" gradientUnits="userSpaceOnUse" x1="250" y1="0" x2="250" y2="500"/></defs><ellipse style="stroke: rgba(0, 0, 0, 0); fill: url(&quot;#gradient-1-0&quot;);" cx="250" cy="250" rx="250" ry="250"/><g transform="matrix(1, 0, 0, 1, 75, 73.75)"><path style="stroke-linecap: round; stroke-width: 15px; fill: rgb(255, 255, 255); fill-opacity: 0; stroke: rgb(255, 255, 255); transform-origin: 175px 190px 0px;" d="M 175 49.375 L 175 330.625"/><path style="stroke-width: 15px; fill: rgb(255, 255, 255); fill-opacity: 0; stroke: rgb(255, 255, 255); transform-origin: 219.997px 129.542px 0px;" d="M 204.994 144.709 C 219.994 144.709 234.994 134.709 234.994 114.709" transform="matrix(-1, 0, 0, -1, 0, 0)"/><path style="stroke-width: 15px; fill: rgb(255, 255, 255); fill-opacity: 0; stroke: rgb(255, 255, 255); transform-origin: 149.997px 49.208px 0px;" d="M 134.994 64.375 C 149.994 64.375 164.994 54.375 164.994 34.375" transform="matrix(-1, 0, 0, -1, 0, 0)"/><path style="stroke-width: 15px; fill: rgb(255, 255, 255); fill-opacity: 0; stroke: rgb(255, 255, 255);" d="M 185 34.041 C 200 34.041 215 44.041 215 64.041"/><ellipse style="stroke-width: 15px; fill: rgb(255, 255, 255); fill-opacity: 0; stroke: rgb(255, 255, 255);" cx="175" cy="34.375" rx="12.5" ry="12.5"/><path style="stroke-width: 15px; fill: rgb(255, 255, 255); fill-opacity: 0; stroke: rgb(255, 255, 255);" d="M 145 74.375 C 160 74.375 175 84.375 175 104.375"/><path style="stroke-width: 15px; fill: rgb(255, 255, 255); fill-opacity: 0; stroke: rgb(255, 255, 255);" d="M 115 114.375 C 130 114.375 145 124.375 145 144.375"/><path style="stroke-width: 15px; stroke-linecap: round; fill: rgb(255, 255, 255); fill-opacity: 0; stroke: rgb(255, 255, 255);" d="M 115 154.375 C 130 154.375 145 164.375 145 184.375"/><path style="stroke-width: 15px; stroke-linecap: round; fill: rgb(255, 255, 255); fill-opacity: 0; stroke: rgb(255, 255, 255); transform-origin: 92.5px 154.376px 0px;" d="M 70 154.375 L 115 154.375" transform="matrix(1, 0.000002, -0.000002, 1, 0, 0)"/><path style="stroke-width: 15px; fill: rgb(255, 255, 255); fill-opacity: 0; stroke: rgb(255, 255, 255); transform-origin: 190.003px 89.542px 0px;" d="M 175 104.709 C 190 104.709 205 94.709 205 74.709" transform="matrix(-1, 0, 0, -1, 0, 0)"/><path style="stroke-width: 15px; stroke-linecap: round; fill: rgb(255, 255, 255); fill-opacity: 0; stroke: rgb(255, 255, 255); transform-origin: 257.504px 154.375px 0px;" d="M 235.005 154.375 L 279.999 154.375"/><path style="stroke-width: 15px; stroke-linecap: round; fill: rgb(255, 255, 255); fill-opacity: 0; stroke: rgb(255, 255, 255); transform-origin: 220.003px 169.542px 0px;" d="M 205 184.709 C 220 184.709 235 174.709 235 154.709" transform="matrix(-1, 0, 0, -1, 0, 0)"/><path style="stroke-width: 15px; fill: rgb(255, 255, 255); fill-opacity: 0; stroke: rgb(255, 255, 255); transform-origin: 109.997px 89.542px 0px;" d="M 94.994 104.709 C 109.994 104.709 124.994 94.709 124.994 74.709" transform="matrix(-1, 0, 0, -1, 0, 0)"/><ellipse style="stroke-width: 15px; fill: rgb(255, 255, 255); fill-opacity: 0; stroke: rgb(255, 255, 255);" cx="135" cy="74.375" rx="12.5" ry="12.5"/><path style="stroke-width: 15px; fill: rgb(255, 255, 255); fill-opacity: 0; stroke: rgb(255, 255, 255); transform-origin: 69.997px 129.543px 0px;" d="M 54.994 144.71 C 69.994 144.71 84.994 134.71 84.994 114.71" transform="matrix(-1, 0, 0, -1, 0, 0)"/><path style="stroke-width: 15px; stroke-linecap: round; fill: rgb(255, 255, 255); fill-opacity: 0; stroke: rgb(255, 255, 255); transform-origin: 111.446px 114.554px 0px;" d="M 107.5 114.376 L 115 114.376"/><ellipse style="stroke-width: 15px; fill: rgb(255, 255, 255); fill-opacity: 0; stroke: rgb(255, 255, 255);" cx="95" cy="114.375" rx="12.5" ry="12.5"/><ellipse style="stroke-width: 15px; fill: rgb(255, 255, 255); fill-opacity: 0; stroke: rgb(255, 255, 255);" cx="55" cy="154.375" rx="12.5" ry="12.5"/><path style="stroke-width: 15px; fill: rgb(255, 255, 255); fill-opacity: 0; stroke: rgb(255, 255, 255);" d="M 225.006 74.375 C 240.006 74.375 255.006 84.375 255.006 104.375"/><ellipse style="stroke-width: 15px; fill: rgb(255, 255, 255); fill-opacity: 0; stroke: rgb(255, 255, 255);" cx="215.006" cy="74.375" rx="12.5" ry="12.5"/><path style="stroke-width: 15px; fill: rgb(255, 255, 255); fill-opacity: 0; stroke: rgb(255, 255, 255);" d="M 265 114.376 C 280 114.376 295 124.376 295 144.376"/><path style="stroke-width: 15px; stroke-linecap: round; fill: rgb(255, 255, 255); fill-opacity: 0; stroke: rgb(255, 255, 255); transform-origin: 238.945px 114.553px 0px;" d="M 234.999 114.375 L 242.499 114.375" transform="matrix(1, 0.000001, -0.000001, 1, 0, 0)"/><ellipse style="stroke-width: 15px; fill: rgb(255, 255, 255); fill-opacity: 0; stroke: rgb(255, 255, 255);" cx="255" cy="114.375" rx="12.5" ry="12.5"/><ellipse style="stroke-width: 15px; fill: rgb(255, 255, 255); fill-opacity: 0; stroke: rgb(255, 255, 255);" cx="295" cy="154.375" rx="12.5" ry="12.5"/><path style="stroke-linecap: round; stroke-width: 15px; fill: rgb(255, 255, 255); fill-opacity: 0; stroke: rgb(255, 255, 255);" d="M 205.006 144.375 L 205.005 152.29166666666666 C 205.004 160.20833333333334 205.00199999999998 176.04166666666666 205.00200000000004 192.29166666666666 C 205.00199999999998 208.54166666666666 205.004 225.20833333333334 210.004 246.66666666666666 C 215.004 268.125 225.00199999999998 294.375 230.001 307.5 L 235 320.625"/><path style="stroke-linecap: round; stroke-width: 15px; fill: rgb(255, 255, 255); fill-opacity: 0; stroke: rgb(255, 255, 255);" d="M 145 144.375 L 145 152.29166666666666 C 145 160.20833333333334 145 176.04166666666666 145 192.29166666666666 C 145 208.54166666666666 145 225.20833333333334 140 246.66666666666666 C 135 268.125 125 294.375 120 307.5 L 115 320.625"/></g></svg>